<?xml version="1.0" encoding="UTF-8" standalone="no"?>
<!DOCTYPE svg PUBLIC "-//W3C//DTD SVG 1.1//EN" "http://www.w3.org/Graphics/SVG/1.1/DTD/svg11.dtd">
<svg width="100%" height="100%" viewBox="0 0 1136 910" version="1.1" xmlns="http://www.w3.org/2000/svg" xmlns:xlink="http://www.w3.org/1999/xlink" xml:space="preserve" xmlns:serif="http://www.serif.com/" style="fill-rule:evenodd;clip-rule:evenodd;stroke-linejoin:round;stroke-miterlimit:2;">
    <g transform="matrix(1,0,0,1,-696.973456,-1351.737652)">
        <g transform="matrix(1.809427,0,0,1.809427,329.687876,1190.543297)">
            <g transform="matrix(0.844873,0,0,1,95.981525,-16.951548)">
                <path d="M497.829,285.218C528.266,318.211 529.116,317.597 531.476,322.344C458.296,320.864 417.704,324.674 415.629,323.29C413.559,321.908 369.032,272.2 368.418,271.588C366.141,269.322 328.433,227.295 317.898,216.137C308.737,206.434 304.969,198.453 305.174,206.486C305.23,208.659 305.415,326.308 305.116,327.387C304.435,329.837 126.716,407.64 126.652,404.576C126.195,382.963 212.453,129.419 212.484,111.5C212.487,109.64 211.998,106.287 214.457,106.184C216.364,106.104 331.081,106.092 332.522,106.179C335.586,106.365 335.216,107.487 395.624,173.388C425.747,206.25 486.692,273.837 494.565,281.374C496.088,283.427 496.058,283.362 497.829,285.218Z" style="fill:rgb(30,70,134);"/>
            </g>
            <g transform="matrix(0.844873,0,0,1,95.981525,-16.951548)">
                <path d="M775.427,106.609C775.166,106.893 772.393,109.913 772.15,110.158C768.403,113.928 734.345,148.189 725.955,157.917C716.804,168.528 686.738,196.958 683.533,203.492C681.14,203.816 681.357,204.309 674.286,212.307C669.898,217.27 669.661,217.043 618.448,273.454C614.831,277.437 574.831,321.497 572.608,322.669C570.146,323.966 557.784,322.663 531.476,322.344C529.116,317.597 528.266,318.211 497.829,285.218C496.058,283.362 496.088,283.427 494.565,281.374C501.62,274.952 652.171,107.452 655.47,106.409C656.353,106.13 765.748,105.646 775.427,106.609Z" style="fill:rgb(186,143,45);"/>
            </g>
            <g transform="matrix(0.844873,0,0,1,95.981525,-16.951548)">
                <path d="M775.427,106.609C776.54,109.578 871.288,404.341 869.459,404.664C868.9,404.763 684.346,329.415 683.644,327.445C683.252,326.343 683.112,226.642 683.533,203.492C686.738,196.958 716.804,168.528 725.955,157.917C734.345,148.189 768.403,113.928 772.15,110.158C772.393,109.913 775.166,106.893 775.427,106.609Z" style="fill:rgb(30,69,133);"/>
            </g>
        </g>
        <g transform="matrix(1.448242,0,0,1.448242,499,1188)">
            <path d="M598.285,418.159C605.374,417.696 639.295,422.361 639.542,422.138C768.948,441.142 844.177,481.333 894.32,507.845C905.237,513.617 916.308,520.793 918.17,522C921.842,524.381 920.556,525.614 920.645,595.5C920.797,714.394 920.085,725.239 919.347,736.495C918.967,742.287 916.403,741.205 897.499,741.282C778.49,741.771 778.547,740.467 659.511,741.097C644.721,741.176 682.559,727.476 718.034,682.135C733.372,662.532 738.232,635.428 728.011,616.758C720.051,602.218 706.249,580.387 606.422,545.719C522.756,516.664 449.529,491.741 529.612,454.737C572.045,435.131 582.653,429.659 598.285,418.159Z" style="fill:rgb(186,143,45);"/>
            <path d="M524.727,414.888C499.531,427.732 297.504,479.568 383.716,538.199C425.386,566.538 516.539,589.718 487.178,635.308C476.662,651.636 451.662,664.347 442.733,668.98C418.096,681.21 398.066,689.619 343.533,705.616C307.378,716.223 211.412,734.948 162.46,739.112C140.827,740.952 138.191,741.955 137.929,736.486C136.159,699.498 136.84,598.77 136.786,528.496C136.781,521.921 138.574,522.276 154.259,513.09C297.154,429.41 431.034,421.401 446.539,418.565C469.525,417.043 469.4,416.81 492.493,415.38C506.994,414.482 521.82,413.223 524.727,414.888Z" style="fill:rgb(30,70,130);"/>
            <path d="M198.22,493.024C203.171,496.329 205.514,495.708 203.922,497.423C202.181,499.298 200.701,499.325 199.55,500.557C198.663,501.505 195.805,499.885 195.74,499.906C194.644,500.26 194.807,500.835 193.469,500.6C191.922,500.329 191.075,500.849 191.345,499.277C191.417,498.857 192.033,498.712 192.19,498.316C192.421,497.731 190.561,496.349 192.506,495.508C197.805,493.216 197.735,493.138 198.22,493.024Z" style="fill:rgb(31,68,127);"/>
            <path d="M246.394,472.281C246.49,472.145 249.067,468.49 248.245,471.336C248.199,471.495 248.111,471.404 246.394,472.281Z" style="fill:rgb(26,64,118);"/>
        </g>
    </g>
</svg>
