<?xml version="1.0" encoding="UTF-8" standalone="no"?>
<!DOCTYPE svg PUBLIC "-//W3C//DTD SVG 1.1//EN" "http://www.w3.org/Graphics/SVG/1.1/DTD/svg11.dtd">
<svg width="100%" height="100%" viewBox="0 0 1280 806" version="1.1" xmlns="http://www.w3.org/2000/svg" xmlns:xlink="http://www.w3.org/1999/xlink" xml:space="preserve" xmlns:serif="http://www.serif.com/" style="fill-rule:evenodd;clip-rule:evenodd;stroke-linejoin:round;stroke-miterlimit:2;">
    <g transform="matrix(1,0,0,1,-600.214093,-716.878495)">
        <g transform="matrix(1.710758,0,0,1.710758,364.249277,564.474117)">
            <g transform="matrix(0.844873,0,0,1,95.981525,-16.951548)">
                <path d="M338.457,340.033C344.361,339.551 344.338,339.559 382.509,337.704C583.442,327.939 757.266,347.94 799.551,355.17C808.062,356.444 807.972,356.378 816.485,357.603C852.679,362.809 933.411,382.859 934.346,383.676C937.619,386.54 929.948,385.105 929.557,385.032C900.098,379.523 781.751,367.934 776.469,368.435C775.93,368.306 776.278,369.072 775.8,368.958C774.945,368.752 775.348,368.243 774.497,367.962C774.321,367.903 763.431,367.005 762.469,366.926C741.407,365.188 741.484,365.425 720.484,363.778C647.418,358.05 547.84,356.461 544.552,356.24C482.83,356.966 414.982,372.2 402.732,378.917C344.761,410.706 388.898,431.664 413.559,444.382C433.557,454.695 513.907,482.671 433.405,524.315C357.302,563.683 214.728,578.762 212.958,576.148C211.919,574.613 212.94,371.935 212.349,369.542C211.891,367.686 211.125,367.571 188.458,370.068C162.215,372.959 127.813,376.29 122.536,376.8C86.852,380.255 86.976,380.657 51.458,385.792C49.602,386.06 48.562,384.049 51.431,383.374C97.276,372.594 156.671,352.08 338.457,340.033Z" style="fill:rgb(30,69,133);"/>
            </g>
            <g transform="matrix(0.844873,0,0,1,95.981525,-16.951548)">
                <path d="M544.552,356.24C544.552,356.24 661.757,359.175 720.484,363.778C741.484,365.425 741.407,365.188 762.469,366.926C763.431,367.005 774.321,367.903 774.497,367.962C775.348,368.243 774.945,368.752 775.8,368.958C776.278,369.072 775.93,368.306 776.469,368.435C775.073,374.543 777.121,574.643 775.293,576.261C774.599,576.875 774.478,576.77 600.5,576.795C591.426,576.797 581.884,577.788 587.021,574.063C604.05,561.713 671.367,515.574 626.544,473.451C585.697,435.065 446.972,418.315 472.435,384.446C482.46,371.111 544.226,359.964 544.552,356.24Z" style="fill:rgb(186,143,45);"/>
            </g>
            <g transform="matrix(0.844873,0,0,1,95.981525,-16.951548)">
                <path d="M497.829,285.218C528.266,318.211 529.116,317.597 531.476,322.344C458.296,320.864 417.704,324.674 415.629,323.29C413.559,321.908 369.032,272.2 368.418,271.588C366.141,269.322 328.433,227.295 317.898,216.137C308.737,206.434 304.969,198.453 305.174,206.486C305.23,208.659 305.415,326.308 305.116,327.387C304.435,329.837 300.654,328.419 245.474,334.249C214.529,337.519 212.652,338.557 212.588,335.493C212.131,313.88 212.453,129.419 212.484,111.5C212.487,109.64 211.998,106.287 214.457,106.184C216.364,106.104 331.081,106.092 332.522,106.179C335.586,106.365 335.216,107.487 395.624,173.388C425.747,206.25 486.692,273.837 494.565,281.374C496.088,283.427 496.058,283.362 497.829,285.218Z" style="fill:rgb(30,70,134);"/>
            </g>
            <g transform="matrix(0.844873,0,0,1,95.981525,-16.951548)">
                <path d="M775.427,106.609C775.166,106.893 772.393,109.913 772.15,110.158C768.403,113.928 734.345,148.189 725.955,157.917C716.804,168.528 686.738,196.958 683.533,203.492C681.14,203.816 681.357,204.309 674.286,212.307C669.898,217.27 669.661,217.043 618.448,273.454C614.831,277.437 574.831,321.497 572.608,322.669C570.146,323.966 557.784,322.663 531.476,322.344C529.116,317.597 528.266,318.211 497.829,285.218C496.058,283.362 496.088,283.427 494.565,281.374C501.62,274.952 652.171,107.452 655.47,106.409C656.353,106.13 765.748,105.646 775.427,106.609Z" style="fill:rgb(186,143,45);"/>
            </g>
            <g transform="matrix(0.844873,0,0,1,95.981525,-16.951548)">
                <path d="M775.427,106.609C776.54,109.578 775.992,109.717 776.13,306.5C776.15,336.51 776.368,337.412 774.539,337.735C773.98,337.834 729.046,332.495 709.543,331.008C684.976,329.135 684.346,329.415 683.644,327.445C683.252,326.343 683.112,226.642 683.533,203.492C686.738,196.958 716.804,168.528 725.955,157.917C734.345,148.189 768.403,113.928 772.15,110.158C772.393,109.913 775.166,106.893 775.427,106.609Z" style="fill:rgb(30,69,133);"/>
            </g>
            <g transform="matrix(0.844873,0,0,1,95.981525,-16.951548)">
                <path d="M745.51,331.447C745.663,331.476 747.42,331.812 747.42,331.812C748.101,333.143 746.942,331.721 745.51,331.447Z" style="fill:rgb(26,63,124);"/>
            </g>
        </g>
    </g>
</svg>
